<?xml version="1.0" encoding="UTF-8" standalone="no"?>
<!-- Created with Inkscape (http://www.inkscape.org/) -->

<svg
   xmlns:dc="http://purl.org/dc/elements/1.1/"
   xmlns:cc="http://creativecommons.org/ns#"
   xmlns:rdf="http://www.w3.org/1999/02/22-rdf-syntax-ns#"
   xmlns:svg="http://www.w3.org/2000/svg"
   xmlns="http://www.w3.org/2000/svg"
   version="1.1"
   width="1204.2776"
   height="731.51202"
   id="svg2">
  <metadata
     id="metadata10">
    <rdf:RDF>
      <cc:Work
         rdf:about="">
        <dc:format>image/svg+xml</dc:format>
        <dc:type
           rdf:resource="http://purl.org/dc/dcmitype/StillImage" />
        <dc:title></dc:title>
      </cc:Work>
    </rdf:RDF>
  </metadata>
  <defs
     id="defs8" />
  <path
     d="m 1203.9308,464.576 q 2.196,-44.896 -9.516,-86.132 -11.712,-41.236 -34.648,-77.592 -22.936,-36.356 -57.584,-64.66 -34.648,-28.304 -77.104,-44.896 -77.10394,-29.28 -155.67194,-12.688 -36.6,-80.520003 -111.264,-129.564 Q 683.47886,0 592.22286,0 q -61.976,0 -118.34,24.156 -56.364,24.156 -97.112,64.904 -40.748,40.748 -64.904,97.112 -24.156,56.364 -24.156,118.34 0,9.272 1.952,26.84 -1.464,0 -3.66,-0.976 -2.196,-0.976 -3.172,-1.464 -80.032,-31.232 -158.844,4.148 -78.812003,35.38 -110.044003,115.412 -19.5199998,55.632 -11.7119998,108.092 7.8079998,52.46 42.9439998,96.624 35.136,44.164 88.328003,64.66 35.136,12.688 72.224,13.664 h 298.168 V 563.64 h -67.832 q -18.544,0 -24.644,-10.736 -6.1,-10.736 3.66,-25.864 l 170.8,-275.232 q 6.832,-9.76 16.104,-9.76 4.392,0 8.54,2.44 4.148,2.44 6.1,4.88 l 1.952,2.44 170.8,275.232 q 9.76,15.128 3.172,25.864 -6.588,10.736 -25.132,10.736 h -66.856 v 167.872 h 223.992 v -0.488 q 85.39994,0 157.37994,-48.556 71.98,-48.556 103.212,-130.54 16.592,-42.456 18.788,-87.352 z"
     id="path4"
     style="fill:#c1c3c5;fill-opacity:1" />
</svg>
